<?xml version="1.0" encoding="utf-8"?>
<!-- Generator: Adobe Illustrator 28.2.0, SVG Export Plug-In . SVG Version: 6.00 Build 0)  -->
<svg version="1.1" id="Layer_1" xmlns="http://www.w3.org/2000/svg" xmlns:xlink="http://www.w3.org/1999/xlink" x="0px" y="0px"
	 viewBox="0 0 170 170" style="enable-background:new 0 0 170 170;" xml:space="preserve">
<style type="text/css">
	.st0{fill:#746F6D;}
	.st1{fill:#313230;}
	.st2{fill:#E2833C;}
	.st3{fill:#FEFEFE;}
	.st4{fill:#C1393C;}
	.st5{fill:#FFFFFF;}
	.st6{fill:#3F88BC;}
</style>
<g id="Layer_x0020_1">
	<g id="_1835966494544">
		<polygon class="st0" points="59.9,82.1 61.7,82.1 61.7,80.3 59.9,80.3 		"/>
		<polygon class="st0" points="62,82.1 63.8,82.1 63.8,80.3 62,80.3 		"/>
		<polygon class="st0" points="64.1,82.1 66,82.1 66,80.3 64.1,80.3 		"/>
		<polygon class="st0" points="66.3,82.1 68.1,82.1 68.1,80.3 66.3,80.3 		"/>
		<polygon class="st0" points="59.9,80 61.7,80 61.7,78.2 59.9,78.2 		"/>
		<polygon class="st0" points="62,80 63.8,80 63.8,78.2 62,78.2 		"/>
		<polygon class="st0" points="64.1,80 66,80 66,78.2 64.1,78.2 		"/>
		<polygon class="st0" points="66.3,80 68.1,80 68.1,78.2 66.3,78.2 		"/>
		<polygon class="st0" points="70.6,80 72.4,80 72.4,78.2 70.6,78.2 		"/>
		<polygon class="st0" points="59.9,77.9 61.7,77.9 61.7,76.1 59.9,76.1 		"/>
		<polygon class="st0" points="62,77.9 63.8,77.9 63.8,76.1 62,76.1 		"/>
		<polygon class="st0" points="66.3,77.9 68.1,77.9 68.1,76.1 66.3,76.1 		"/>
		<polygon class="st0" points="68.4,77.9 70.2,77.9 70.2,76.1 68.4,76.1 		"/>
		<polygon class="st0" points="70.6,77.9 72.4,77.9 72.4,76.1 70.6,76.1 		"/>
		<polygon class="st0" points="62,75.9 63.8,75.9 63.8,74 62,74 		"/>
		<polygon class="st0" points="64.1,75.9 66,75.9 66,74 64.1,74 		"/>
		<polygon class="st0" points="66.3,75.9 68.1,75.9 68.1,74 66.3,74 		"/>
		<polygon class="st0" points="68.4,75.9 70.2,75.9 70.2,74 68.4,74 		"/>
		<polygon class="st0" points="72.7,75.9 74.6,75.9 74.6,74 72.7,74 		"/>
		<polygon class="st0" points="62,73.7 63.8,73.7 63.8,71.9 62,71.9 		"/>
		<polygon class="st0" points="64.1,73.7 66,73.7 66,71.9 64.1,71.9 		"/>
		<polygon class="st0" points="66.3,73.7 68.1,73.7 68.1,71.9 66.3,71.9 		"/>
		<polygon class="st0" points="68.4,73.7 70.2,73.7 70.2,71.9 68.4,71.9 		"/>
		<polygon class="st0" points="70.6,73.7 72.4,73.7 72.4,71.9 70.6,71.9 		"/>
		<polygon class="st0" points="72.7,73.7 74.6,73.7 74.6,71.9 72.7,71.9 		"/>
		<polygon class="st0" points="74.8,73.7 76.6,73.7 76.6,71.9 74.8,71.9 		"/>
		<polygon class="st0" points="79.2,73.7 81,73.7 81,71.9 79.2,71.9 		"/>
		<polygon class="st0" points="66.3,71.6 68.1,71.6 68.1,69.8 66.3,69.8 		"/>
		<polygon class="st0" points="68.4,71.6 70.2,71.6 70.2,69.8 68.4,69.8 		"/>
		<polygon class="st0" points="72.7,71.6 74.6,71.6 74.6,69.8 72.7,69.8 		"/>
		<polygon class="st0" points="77,71.6 78.8,71.6 78.8,69.8 77,69.8 		"/>
		<polygon class="st0" points="64.1,69.5 66,69.5 66,67.7 64.1,67.7 		"/>
		<polygon class="st0" points="66.3,69.5 68.1,69.5 68.1,67.7 66.3,67.7 		"/>
		<polygon class="st0" points="68.4,69.5 70.2,69.5 70.2,67.7 68.4,67.7 		"/>
		<polygon class="st0" points="70.6,69.5 72.4,69.5 72.4,67.7 70.6,67.7 		"/>
		<polygon class="st0" points="72.7,69.5 74.6,69.5 74.6,67.7 72.7,67.7 		"/>
		<polygon class="st0" points="77,69.5 78.8,69.5 78.8,67.7 77,67.7 		"/>
		<polygon class="st0" points="87.7,69.5 89.5,69.5 89.5,67.7 87.7,67.7 		"/>
		<polygon class="st0" points="66.3,67.4 68.1,67.4 68.1,65.6 66.3,65.6 		"/>
		<polygon class="st0" points="70.6,67.4 72.4,67.4 72.4,65.6 70.6,65.6 		"/>
		<polygon class="st0" points="74.8,67.4 76.6,67.4 76.6,65.6 74.8,65.6 		"/>
		<polygon class="st0" points="79.2,67.4 81,67.4 81,65.6 79.2,65.6 		"/>
		<polygon class="st0" points="72.7,65.3 74.6,65.3 74.6,63.5 72.7,63.5 		"/>
		<polygon class="st0" points="77,65.3 78.8,65.3 78.8,63.5 77,63.5 		"/>
		<polygon class="st0" points="74.8,63.3 76.6,63.3 76.6,61.4 74.8,61.4 		"/>
		<polygon class="st0" points="79.2,63.3 81,63.3 81,61.4 79.2,61.4 		"/>
		<polygon class="st0" points="83.4,63.3 85.2,63.3 85.2,61.4 83.4,61.4 		"/>
		<polygon class="st0" points="72.7,61.1 74.6,61.1 74.6,59.3 72.7,59.3 		"/>
		<polygon class="st0" points="83.4,59 85.2,59 85.2,57.2 83.4,57.2 		"/>
		<polygon class="st0" points="89.8,59 91.7,59 91.7,57.2 89.8,57.2 		"/>
		<polygon class="st0" points="83.4,56.9 85.2,56.9 85.2,55.1 83.4,55.1 		"/>
		<polygon class="st0" points="83.4,54.8 85.2,54.8 85.2,53 83.4,53 		"/>
		<polygon class="st0" points="85.6,52.7 87.4,52.7 87.4,50.9 85.6,50.9 		"/>
		<polygon class="st1" points="54.9,77.2 59.5,77.2 59.5,76.3 54.9,76.3 		"/>
		<path class="st0" d="M59.6,82.5h7.8c-2.2,2.4-7.3,6.6-18.9,10.7C28,100.5,7.9,91.8,19.7,75.1c11.4-16.3,29.7-20.2,31.6-20.5
			s5-0.5,3.5,0c-1.6,0.5-4.5,1.7-4.3,2.1c0.1,0.4,2.1,0,3.1-0.2c1.1-0.1,1.1,0.6,0.5,0.9s-1.2,0-0.8,0.4c0.4,0.4,0.1,0.7-0.5,1
			s-2.4,0.1-3,0.7C49.1,60,50.9,60,52,59.6c1.2-0.5,1.4-0.6,2.8-0.7c1.3-0.1,0.1,0.7,0.7,1s3.8-0.4,3,0.1c-0.9,0.5,1.6,0.5-0.1,1
			s-17.3,2.2-29.2,10.1S15.7,95.2,36,91.2c14.8-3,21-9.8,23.3-13.2L59.6,82.5L59.6,82.5z M50.4,61c-1-0.1-0.9,0.2-1.2,0.4
			c-0.4,0.2,0.6,0.4,1.4,0.4C51.4,61.6,51.4,61.1,50.4,61z M49.6,57.3c-0.7-0.1-0.6,0.1-1.7,0.3c-1,0.2-1.6,1.2-0.6,1.1
			s1.4-0.1,2.3-0.5C50.6,57.8,49.6,57.3,49.6,57.3z"/>
		<path class="st2" d="M33.5,76.9c0-5.3,4.4-9.7,9.7-9.7c5.4,0,9.7,4.4,9.7,9.7c0,5.4-4.3,9.7-9.7,9.7
			C37.9,86.7,33.5,82.3,33.5,76.9z"/>
		<path class="st3" d="M36.7,72.7c-0.4-0.9,0-2,0.9-2.4s2.1,0,2.5,0.9s0,2.1-0.9,2.5C38.2,74.1,37.1,73.7,36.7,72.7z"/>
		<path class="st0" d="M63.7,57.9c-0.2-0.1-2.2,0.1-2.5,0.1c-0.3-0.1-0.7,0.3-1.4,0.3c-0.6,0-1.7,0.1-1.3,0.5c0.4,0.4,2.1,0.2,2.8,0
			c0.8-0.1,1.6-0.5,2.3-0.3C64.3,58.6,63.8,57.9,63.7,57.9z M61.2,57c-0.3-0.4-1.2-0.1-1.6,0.1c-0.4,0.3-0.4,0.3,0.4,0.4
			C60.7,57.6,61.3,57.2,61.2,57z M57.1,57.4c-1,0.2-1.2,0.4-1.7,0.5c-0.6,0.1-0.1,0.5,1.1,0.3c1.2-0.3,1.5-0.4,2.1-0.4
			c0.5-0.1,0.4-0.6-0.2-0.6C57.6,57.1,57.1,57.4,57.1,57.4z M59.7,55.7c-0.3-0.3-2.1-0.4-2.7-0.1s-1.3,0.6-1.7,0.6s0.2,0.4,1.2,0.4
			s0.8-0.3,1.8-0.1C59.3,56.6,60,56,59.7,55.7z M58.4,54.5c0-0.4-1.9-0.5-2.2-0.1c-0.3,0.4-1.3,0.2-1.4,0.6s0.9,0.3,1.7,0
			C57.3,54.6,58.4,54.9,58.4,54.5z"/>
		<polygon class="st1" points="7.3,77.1 31.3,77.1 31.3,76.2 7.3,76.2 		"/>
		<polygon class="st1" points="42.8,113.6 43.7,113.6 43.7,89.7 42.8,89.7 		"/>
		<polygon class="st1" points="42.8,64 43.7,64 43.7,40.1 42.8,40.1 		"/>
		<polygon class="st1" points="72.8,77.2 142.1,77.2 142.1,76.3 72.8,76.3 		"/>
		<path class="st4" d="M41.5,38.3c0-0.9,0.8-1.7,1.7-1.7c1,0,1.8,0.8,1.8,1.7S44.2,40,43.2,40C42.3,40.1,41.5,39.3,41.5,38.3z
			 M142,76.7c0-1,0.8-1.8,1.8-1.8c0.9,0,1.7,0.8,1.7,1.8c0,0.9-0.8,1.7-1.7,1.7C142.8,78.4,142,77.7,142,76.7z"/>
		<path class="st5" d="M70.8,107.7c0,1.9-0.6,3.3-1.7,4.3c-1.2,1-2.8,1.5-5.1,1.5h-8.6v-18h8.7c2.2,0,3.8,0.4,4.8,1.2
			c0.9,0.9,1.4,2,1.4,3.5c0,0.9-0.2,1.7-0.6,2.2c-0.4,0.5-0.9,0.9-1.5,1.3c0.9,0.3,1.5,0.8,1.9,1.4
			C70.6,105.8,70.8,106.7,70.8,107.7z M65.5,100.8c0-0.4-0.1-0.7-0.3-1s-0.6-0.4-1.2-0.4h-3.8v2.9H64c0.6,0,0.9-0.1,1.2-0.4
			C65.4,101.6,65.5,101.3,65.5,100.8z M65.9,107.8c0-0.5-0.1-0.9-0.4-1.2s-0.7-0.5-1.4-0.5h-4v3.5h4c0.6,0,1.1-0.1,1.4-0.5
			C65.8,108.7,65.9,108.3,65.9,107.8z"/>
		<polygon class="st5" points="72.8,113.5 77.9,113.5 77.9,95.5 72.8,95.5 		"/>
		<path class="st5" d="M131.3,108c0,1-0.2,1.9-0.6,2.7c-0.4,0.7-0.9,1.3-1.6,1.8c-0.6,0.4-1.4,0.8-2.3,1c-0.9,0.2-1.9,0.4-3,0.4
			c-1.4,0-2.8-0.2-4.2-0.6c-1.3-0.4-2.4-0.9-3.4-1.6l2.4-3.9c0.4,0.2,0.7,0.4,1.2,0.6c0.4,0.2,0.9,0.4,1.4,0.6
			c0.5,0.1,0.9,0.3,1.4,0.4c0.5,0.1,0.9,0.1,1.4,0.1c0.9,0,1.5-0.1,1.8-0.3c0.4-0.1,0.5-0.4,0.5-0.9c0-0.1,0-0.4-0.1-0.5
			s-0.2-0.2-0.5-0.4c-0.2-0.1-0.5-0.3-0.9-0.4c-0.4-0.1-0.9-0.2-1.4-0.4c-1.1-0.3-2-0.5-2.9-0.8c-0.8-0.4-1.4-0.7-1.9-1.2
			c-0.6-0.4-0.9-0.9-1.2-1.6c-0.3-0.6-0.4-1.4-0.4-2.2s0.2-1.7,0.5-2.4c0.4-0.6,0.9-1.3,1.4-1.8c0.6-0.5,1.4-0.9,2.2-1.2
			c0.9-0.3,1.9-0.4,3-0.4c1.5,0,2.9,0.1,4,0.5c1.2,0.4,2.2,0.9,3.2,1.5l-2.4,4c-0.8-0.6-1.6-1-2.4-1.3c-0.8-0.3-1.7-0.4-2.6-0.4
			c-0.7,0-1.2,0.1-1.4,0.4c-0.3,0.1-0.4,0.4-0.4,0.8c0,0.1,0,0.3,0.1,0.4c0.1,0.1,0.2,0.2,0.4,0.4c0.2,0.1,0.6,0.2,0.9,0.4
			c0.4,0.1,0.9,0.2,1.4,0.4c1.1,0.3,2.1,0.6,3,0.9c0.8,0.4,1.4,0.7,2,1.2c0.5,0.5,0.9,1,1.2,1.6C131.2,106.4,131.3,107.1,131.3,108z
			 M113.9,109.5c-0.4,1-1,1.8-1.7,2.4c-0.7,0.6-1.6,1.1-2.5,1.4c-1,0.3-2,0.4-3.2,0.4s-2.2-0.1-3.2-0.4c-0.9-0.4-1.8-0.8-2.4-1.4
			c-0.7-0.6-1.2-1.4-1.7-2.4c-0.4-1-0.6-2.2-0.6-3.7V95.5h5.1v10.3c0,1.1,0.2,2,0.6,2.6c0.4,0.6,1.2,1,2.2,1c0.9,0,1.7-0.4,2.1-1
			c0.4-0.6,0.7-1.5,0.7-2.6V95.5h5v10.3C114.5,107.2,114.3,108.5,113.9,109.5z M92.3,113.5l-4.3-6c-0.2-0.3-0.4-0.6-0.7-1
			c-0.2-0.4-0.5-0.8-0.8-1.2s-0.5-0.8-0.7-1.2s-0.4-0.6-0.6-0.8c0.1,0.1,0.1,0.4,0.1,0.8c0.1,0.4,0.1,0.8,0.1,1.2s0.1,0.9,0.1,1.4
			v6.8h-4.8v-18h4.4l4,5.3c0.2,0.2,0.5,0.6,0.7,1c0.3,0.4,0.6,0.8,0.9,1.2c0.3,0.4,0.5,0.8,0.7,1.2c0.3,0.4,0.4,0.6,0.5,0.8
			c0-0.1-0.1-0.4-0.1-0.9c0-0.4,0-0.7-0.1-1.2c0-0.4,0-0.9,0-1.4v-6.1h4.8v18L92.3,113.5L92.3,113.5z"/>
		<path class="st6" d="M76.7,133.2l-4.6-6.8c-0.4-0.5-0.7-1.1-0.9-1.4c0,0.5,0.1,2.1,0.1,2.7v5.5h-2.5v-12.6h2.4l4.5,6.7
			c0.3,0.4,0.7,1.1,0.9,1.4c0-0.5,0-2.1,0-2.8v-5.3h2.4v12.6L76.7,133.2L76.7,133.2z M60.4,133.4c-3,0-5-2-5-5.7v-7.1h2.5v7.1
			c0,2,0.9,3.3,2.5,3.3c1.7,0,2.7-1.2,2.7-3.2v-7.1h2.5v7.1C65.6,131.3,63.7,133.4,60.4,133.4z"/>
		<polygon class="st6" points="82.4,133.2 84.9,133.2 84.9,120.6 82.4,120.6 		"/>
		<path class="st6" d="M94.4,133.2H92l-4.5-12.6h2.8l2.4,7.3c0.2,0.6,0.5,1.6,0.6,2c0.1-0.4,0.4-1.3,0.6-2l2.3-7.3H99L94.4,133.2z"
			/>
		<polygon class="st6" points="101.2,133.2 101.2,120.6 110,120.6 110,123.1 103.7,123.1 103.7,125.2 107.4,125.2 107.4,127.7 
			103.7,127.7 103.7,130.7 110.3,130.7 110.3,133.2 		"/>
		<path class="st6" d="M130.1,133.4c-2.1,0-4-0.9-4.9-2.3l1.8-1.6c0.9,1,2.1,1.4,3.2,1.4c1.5,0,2.2-0.4,2.2-1.4
			c0-0.8-0.4-1.2-2.8-1.7c-2.4-0.5-4-1.3-4-3.7c0-2.3,2-3.7,4.5-3.7c1.9,0,3.4,0.8,4.5,2l-1.8,1.8c-0.8-0.9-1.7-1.3-2.9-1.3
			c-1.3,0-1.8,0.6-1.8,1.1c0,0.8,0.6,1.1,2.6,1.5c1.9,0.5,4.2,1.2,4.2,3.9C135,131.8,133.5,133.4,130.1,133.4z M120.3,133.2
			l-2.3-4.5h-2.5v4.5H113v-12.6h5.9c2.4,0,4.3,1.3,4.3,4c0,1.9-0.8,3.1-2.4,3.7l2.4,4.9L120.3,133.2L120.3,133.2z M118.8,123h-3.3
			v3.2h3.3c1.2,0,1.8-0.5,1.8-1.6C120.6,123.5,119.8,123,118.8,123z"/>
		<polygon class="st6" points="137.9,133.2 140.4,133.2 140.4,120.6 137.9,120.6 		"/>
		<polygon class="st6" points="149.2,123.1 149.2,133.2 146.6,133.2 146.6,123.1 143,123.1 143,120.6 152.8,120.6 152.8,123.1 		"/>
		<path class="st6" d="M161.3,128.2v5h-2.5v-4.9l-4.8-7.7h3l1.8,3c0.4,0.7,1.1,2,1.4,2.4c0.2-0.4,0.9-1.7,1.4-2.4l1.7-3h2.9
			L161.3,128.2z"/>
		<path class="st4" d="M3.9,76.6c0-0.9,0.8-1.7,1.7-1.7c0.9,0,1.7,0.8,1.7,1.7c0,1-0.8,1.8-1.7,1.8C4.7,78.4,3.9,77.7,3.9,76.6z
			 M41.5,115.3c0-0.9,0.8-1.7,1.8-1.7c0.9,0,1.7,0.8,1.7,1.7s-0.8,1.7-1.7,1.7C42.3,117,41.5,116.2,41.5,115.3z"/>
	</g>
</g>
</svg>
